<!--
  PLACEHOLDER LOGO.
  Replace this file with the official LBSAA logo (keep the same filename, or
  update LOGO_SRC in src/config/brand.ts). Every screen and the exported PNG
  read the logo from that single location.
-->
<svg xmlns="http://www.w3.org/2000/svg" viewBox="0 0 520 160" width="520" height="160">
  <g transform="translate(8 8)">
    <path d="M72 0 L140 18 V78 C140 112 110 136 72 144 C34 136 4 112 4 78 V18 Z" fill="#0B2348"/>
    <path d="M72 10 L130 25 V78 C130 106 105 126 72 134 C39 126 14 106 14 78 V25 Z" fill="none" stroke="#D9A21B" stroke-width="3"/>
    <path d="M42 110 V90 A30 30 0 0 1 102 90 V110" fill="none" stroke="#D9A21B" stroke-width="5"/>
    <path d="M56 110 V93 A16 16 0 0 1 88 93 V110" fill="none" stroke="#FFFFFF" stroke-width="4"/>
    <rect x="34" y="110" width="76" height="6" fill="#D9A21B"/>
    <text x="72" y="50" text-anchor="middle" font-family="Georgia, 'Times New Roman', serif" font-size="20" font-weight="700" fill="#FFFFFF" letter-spacing="2">LBS</text>
  </g>
  <text x="172" y="78" font-family="Georgia, 'Times New Roman', serif" font-size="60" font-weight="700" fill="#0B2348" letter-spacing="4">LBSAA</text>
  <rect x="174" y="92" width="60" height="4" fill="#D9A21B"/>
  <text x="174" y="124" font-family="Arial, Helvetica, sans-serif" font-size="17" font-weight="700" fill="#0B2348" letter-spacing="1.5">LAGOS BUSINESS SCHOOL</text>
  <text x="174" y="146" font-family="Arial, Helvetica, sans-serif" font-size="15" fill="#4A5B78" letter-spacing="3.2">ALUMNI ASSOCIATION</text>
</svg>
